<svg xmlns="http://www.w3.org/2000/svg" viewBox="0 0 512 512">
  <rect width="512" height="512" rx="110" fill="#1a1005"/>
  <ellipse cx="256" cy="148" rx="28" ry="58" fill="#c9a84c" opacity="0.9"/>
  <ellipse cx="256" cy="148" rx="28" ry="58" fill="#c9a84c" opacity="0.9" transform="rotate(45 256 256)"/>
  <ellipse cx="256" cy="148" rx="28" ry="58" fill="#d4954a" opacity="0.85" transform="rotate(90 256 256)"/>
  <ellipse cx="256" cy="148" rx="28" ry="58" fill="#c9a84c" opacity="0.9" transform="rotate(135 256 256)"/>
  <ellipse cx="256" cy="148" rx="28" ry="58" fill="#d4954a" opacity="0.85" transform="rotate(180 256 256)"/>
  <ellipse cx="256" cy="148" rx="28" ry="58" fill="#c9a84c" opacity="0.9" transform="rotate(225 256 256)"/>
  <ellipse cx="256" cy="148" rx="28" ry="58" fill="#d4954a" opacity="0.85" transform="rotate(270 256 256)"/>
  <ellipse cx="256" cy="148" rx="28" ry="58" fill="#c9a84c" opacity="0.9" transform="rotate(315 256 256)"/>
  <circle cx="256" cy="256" r="72" fill="#6b3d11"/>
  <circle cx="256" cy="256" r="55" fill="#4a2a08"/>
  <circle cx="256" cy="225" r="6" fill="#c9a84c" opacity="0.5"/>
  <circle cx="276" cy="238" r="6" fill="#c9a84c" opacity="0.5"/>
  <circle cx="276" cy="262" r="6" fill="#c9a84c" opacity="0.5"/>
  <circle cx="256" cy="275" r="6" fill="#c9a84c" opacity="0.5"/>
  <circle cx="236" cy="262" r="6" fill="#c9a84c" opacity="0.5"/>
  <circle cx="236" cy="238" r="6" fill="#c9a84c" opacity="0.5"/>
</svg>